<svg width="24" height="24" viewBox="0 0 24 24" fill="none" xmlns="http://www.w3.org/2000/svg">
<path d="M23.0318 7.28056L20.2286 10.0837C19.6624 16.6481 14.1265 21.7499 7.50115 21.7499C6.13989 21.7499 5.01771 21.5343 4.16552 21.1087C3.47833 20.7646 3.19708 20.3962 3.12677 20.2912C3.06407 20.1972 3.02344 20.0902 3.00789 19.9782C2.99235 19.8663 3.00231 19.7523 3.03701 19.6448C3.07172 19.5372 3.13029 19.4389 3.20833 19.3572C3.28637 19.2754 3.38188 19.2124 3.48771 19.1727C3.51208 19.1634 5.76021 18.2999 7.18802 16.6565C6.39619 16.0055 5.70497 15.241 5.13677 14.3877C3.97427 12.6618 2.67302 9.66369 3.07427 5.18337C3.08699 5.04101 3.14012 4.90525 3.22741 4.79207C3.3147 4.67889 3.43252 4.59301 3.56698 4.54454C3.70144 4.49608 3.84696 4.48704 3.98638 4.51851C4.12581 4.54997 4.25334 4.62061 4.35396 4.72212C4.38677 4.75494 7.47396 7.82525 11.2483 8.82087V8.24994C11.2469 7.65124 11.3653 7.05831 11.5965 6.50606C11.8277 5.95381 12.167 5.45341 12.5946 5.03431C13.0098 4.61968 13.5039 4.29241 14.0476 4.07182C14.5914 3.85123 15.1738 3.74178 15.7605 3.74994C16.5476 3.7577 17.3193 3.96899 18.0006 4.36325C18.6818 4.75752 19.2495 5.32135 19.6483 5.99994H22.5011C22.6496 5.99982 22.7947 6.04374 22.9181 6.12615C23.0416 6.20855 23.1378 6.32573 23.1946 6.46284C23.2514 6.59996 23.2663 6.75085 23.2373 6.89642C23.2083 7.04198 23.1368 7.17567 23.0318 7.28056Z" fill="#6E727F"/>
</svg>
